<svg width="33" height="32" viewBox="0 0 33 32" fill="none" xmlns="http://www.w3.org/2000/svg">
<path d="M15.4545 6.10199C15.7419 5.42742 16.7373 5.42754 17.0248 6.10199L17.0258 6.10394L19.5834 12.0502C19.6564 12.2199 19.8173 12.3356 20.0014 12.351L26.5375 12.8979H26.5405C27.2971 12.9572 27.5861 13.8744 27.0268 14.352L27.0258 14.353L22.06 18.5922C21.9174 18.7139 21.8547 18.9059 21.8979 19.0883L23.3862 25.3813C23.5509 26.0801 22.7776 26.673 22.1127 26.2768L16.4955 22.9301C16.3382 22.8365 16.1423 22.8357 15.9848 22.9291L10.3686 26.2631H10.3676C9.70263 26.6597 8.92917 26.0667 9.09418 25.3676L10.5825 19.0746C10.6256 18.8922 10.5629 18.7012 10.4203 18.5795L5.45355 14.3393L5.35883 14.2446C4.93192 13.7501 5.23033 12.9398 5.93988 12.8842H5.94183L12.4789 12.3373C12.6627 12.3219 12.8228 12.2068 12.8959 12.0375L15.4545 6.10394V6.10199Z" fill="#FFBA79" stroke="#FFBA79" stroke-linejoin="round"/>
</svg>
